<?xml version="1.0" encoding="UTF-8"?>
<svg xmlns="http://www.w3.org/2000/svg" width="1080" height="1920" viewBox="0 0 1080 1920" role="img" aria-labelledby="title desc">
  <title id="title">TRIA — cover Highlight Lavori</title>
  <desc id="desc">Cover Story Ink per la raccolta dei lavori TRIA, con icona monolineare di una finestra progetto.</desc>
  <defs>
    <pattern id="grid" width="90" height="90" patternUnits="userSpaceOnUse">
      <path d="M90 0H0V90" fill="none" stroke="#f1eee6" stroke-width="2" opacity=".08"/>
    </pattern>
  </defs>
  <rect width="1080" height="1920" fill="#171716"/>
  <rect width="1080" height="1920" fill="url(#grid)"/>
  <g fill="#f1eee6">
    <path transform="translate(80 92) scale(1.7)" fill-rule="evenodd" clip-rule="evenodd" d="M21 2 40 36H2L21 2ZM21 18.5a6.5 6.5 0 1 0 0 13 6.5 6.5 0 0 0 0-13Z"/>
    <text x="164" y="147" font-family="Manrope, Arial, sans-serif" font-size="52" font-weight="700" letter-spacing="-3.64">TRIA</text>
    <text x="80" y="1725" font-family="Manrope, Arial, sans-serif" font-size="132" font-weight="500" letter-spacing="-9">Lavori.</text>
    <text x="82" y="1784" font-family="DM Mono, Courier New, monospace" font-size="24" font-weight="400" letter-spacing="3">SELECTED WORK / TRIA</text>
  </g>
  <text x="1000" y="135" fill="#f1eee6" text-anchor="end" font-family="DM Mono, Courier New, monospace" font-size="24" letter-spacing="3">01 / 05</text>
  <ellipse cx="540" cy="960" rx="340" ry="270" fill="none" stroke="#2449d8" stroke-width="10" transform="rotate(-17 540 960)"/>
  <circle cx="244" cy="829" r="18" fill="#ff4b24"/>
  <g fill="none" stroke="#f1eee6" stroke-width="20" stroke-linecap="round" stroke-linejoin="round">
    <rect x="365" y="823" width="350" height="274"/>
    <path d="M365 890h350M408 856h1M450 856h1M492 856h1"/>
    <path d="M466 1029 616 928M548 928h68v68"/>
  </g>
  <rect x="80" y="1815" width="920" height="2" fill="#f1eee6" opacity=".35"/>
</svg>
